<svg width="1920" height="1080" viewBox="0 0 1920 1080" fill="none" xmlns="http://www.w3.org/2000/svg">
<g clip-path="url(#clip0_1_3)">
<rect width="1920" height="1080" fill="url(#paint0_linear_1_3)"/>
<rect x="73.5" y="720.5" width="309" height="309" rx="49.5" stroke="url(#paint1_linear_1_3)"/>
<rect x="-81.5" y="875.5" width="309" height="309" rx="49.5" stroke="url(#paint2_linear_1_3)"/>
<rect x="1744.5" y="-28.5" width="209" height="209" rx="49.5" stroke="url(#paint3_linear_1_3)"/>
<rect x="383.5" y="91.5" width="209" height="209" rx="49.5" stroke="url(#paint4_linear_1_3)"/>
<rect x="1236.5" y="301.5" width="169" height="169" rx="49.5" stroke="url(#paint5_linear_1_3)"/>
<rect x="1582.5" y="720.5" width="209" height="209" rx="49.5" stroke="url(#paint6_linear_1_3)"/>
<path d="M530 738.103L530.103 737.989" stroke="#73ECFD" stroke-width="7" stroke-linecap="round" stroke-linejoin="round"/>
<path d="M530 615.102L530.103 614.989" stroke="#73ECFD" stroke-width="7" stroke-linecap="round" stroke-linejoin="round"/>
<path d="M489 649.85V580.15C489 576.753 491.753 574 495.15 574H687.85C691.247 574 694 576.753 694 580.15V649.85C694 653.247 691.247 656 687.85 656H495.15C491.753 656 489 653.247 489 649.85Z" stroke="#73ECFD" stroke-width="7"/>
<path d="M489 772.85V703.15C489 699.753 491.753 697 495.15 697H687.85C691.247 697 694 699.753 694 703.15V772.85C694 776.247 691.247 779 687.85 779H495.15C491.753 779 489 776.247 489 772.85Z" stroke="#73ECFD" stroke-width="7"/>
<path d="M1221 710.75V575.3C1221 571.821 1223.82 569 1227.3 569H1424.7C1428.18 569 1431 571.821 1431 575.3V710.75M1221 710.75V730.7C1221 734.18 1223.82 737 1227.3 737H1424.7C1428.18 737 1431 734.18 1431 730.7V710.75M1221 710.75H1431M1294.5 779H1310.25M1310.25 779V737M1310.25 779H1341.75M1341.75 779H1357.5M1341.75 779V737" stroke="#FF0099" stroke-width="7" stroke-linecap="round" stroke-linejoin="round"/>
<path d="M1334.33 611L1314.89 680.444" stroke="#FF0099" stroke-width="7" stroke-linecap="round" stroke-linejoin="round"/>
<path d="M1295.44 624.889L1276 644.333L1295.44 663.778" stroke="#FF0099" stroke-width="7" stroke-linecap="round" stroke-linejoin="round"/>
<path d="M1356.56 624.889L1376 644.333L1356.56 663.778" stroke="#FF0099" stroke-width="7" stroke-linecap="round" stroke-linejoin="round"/>
<path d="M919.117 443L889.857 374.96H902.177L924.717 430.12L947.537 374.96H959.157L929.757 443H919.117ZM992.741 444.26C987.421 444.26 982.381 443.513 977.621 442.02C972.861 440.527 968.941 438.427 965.861 435.72L969.501 427.74C972.861 430.447 976.547 432.453 980.561 433.76C984.667 434.973 988.821 435.58 993.021 435.58C998.341 435.58 1002.35 434.6 1005.06 432.64C1007.77 430.68 1009.12 428.02 1009.12 424.66C1009.12 422.047 1008.23 419.993 1006.46 418.5C1004.69 416.913 1001.89 415.7 998.061 414.86L985.321 412.06C973.747 409.54 967.961 403.567 967.961 394.14C967.961 387.98 970.387 383.033 975.241 379.3C980.187 375.567 986.627 373.7 994.561 373.7C999.227 373.7 1003.66 374.447 1007.86 375.94C1012.15 377.34 1015.7 379.44 1018.5 382.24L1014.72 390.22C1012.01 387.7 1008.84 385.787 1005.2 384.48C1001.65 383.08 998.107 382.38 994.561 382.38C989.334 382.38 985.367 383.407 982.661 385.46C979.954 387.513 978.601 390.22 978.601 393.58C978.601 398.807 982.054 402.167 988.961 403.66L1001.7 406.32C1007.67 407.627 1012.2 409.727 1015.28 412.62C1018.36 415.42 1019.9 419.247 1019.9 424.1C1019.9 430.353 1017.43 435.3 1012.48 438.94C1007.53 442.487 1000.95 444.26 992.741 444.26Z" fill="white"/>
<path d="M1154.07 444.4C1143.8 444.4 1134.98 442.347 1127.61 438.24C1120.33 434.04 1114.73 428.16 1110.81 420.6C1106.89 412.947 1104.93 403.94 1104.93 393.58C1104.93 383.22 1106.89 374.26 1110.81 366.7C1114.73 359.14 1120.33 353.307 1127.61 349.2C1134.98 345 1143.8 342.9 1154.07 342.9C1160.69 342.9 1166.95 343.927 1172.83 345.98C1178.8 348.033 1183.7 350.973 1187.53 354.8L1181.65 369.08C1177.45 365.533 1173.15 362.967 1168.77 361.38C1164.38 359.7 1159.67 358.86 1154.63 358.86C1144.64 358.86 1137.03 361.893 1131.81 367.96C1126.58 373.933 1123.97 382.473 1123.97 393.58C1123.97 404.687 1126.58 413.273 1131.81 419.34C1137.03 425.407 1144.64 428.44 1154.63 428.44C1159.67 428.44 1164.38 427.647 1168.77 426.06C1173.15 424.38 1177.45 421.767 1181.65 418.22L1187.53 432.5C1183.7 436.233 1178.8 439.173 1172.83 441.32C1166.95 443.373 1160.69 444.4 1154.07 444.4ZM1235.14 444.4C1227.39 444.4 1220.2 443.42 1213.58 441.46C1206.95 439.407 1201.35 436.653 1196.78 433.2L1202.24 419.06C1206.81 422.327 1211.8 424.847 1217.22 426.62C1222.72 428.393 1228.7 429.28 1235.14 429.28C1242.51 429.28 1247.88 428.067 1251.24 425.64C1254.6 423.12 1256.28 419.9 1256.28 415.98C1256.28 412.713 1255.06 410.147 1252.64 408.28C1250.3 406.413 1246.24 404.873 1240.46 403.66L1225.06 400.44C1207.51 396.707 1198.74 387.7 1198.74 373.42C1198.74 367.26 1200.37 361.893 1203.64 357.32C1206.9 352.747 1211.43 349.2 1217.22 346.68C1223 344.16 1229.68 342.9 1237.24 342.9C1243.96 342.9 1250.26 343.927 1256.14 345.98C1262.02 347.94 1266.92 350.74 1270.84 354.38L1265.38 367.82C1257.63 361.287 1248.2 358.02 1237.1 358.02C1230.66 358.02 1225.62 359.373 1221.98 362.08C1218.34 364.787 1216.52 368.333 1216.52 372.72C1216.52 376.08 1217.64 378.787 1219.88 380.84C1222.12 382.8 1225.94 384.34 1231.36 385.46L1246.62 388.68C1255.86 390.64 1262.72 393.72 1267.2 397.92C1271.77 402.12 1274.06 407.72 1274.06 414.72C1274.06 420.6 1272.47 425.78 1269.3 430.26C1266.12 434.74 1261.6 438.24 1255.72 440.76C1249.93 443.187 1243.07 444.4 1235.14 444.4ZM1289.44 443V344.3H1332.28C1343.1 344.3 1351.46 346.913 1357.34 352.14C1363.22 357.273 1366.16 364.507 1366.16 373.84C1366.16 381.213 1364.24 387.327 1360.42 392.18C1356.59 396.94 1351.08 400.16 1343.9 401.84C1348.66 403.333 1352.58 406.927 1355.66 412.62L1372.18 443H1352.44L1335.36 411.5C1333.68 408.42 1331.67 406.32 1329.34 405.2C1327.1 404.08 1324.2 403.52 1320.66 403.52H1307.36V443H1289.44ZM1307.36 390.22H1329.2C1342.26 390.22 1348.8 384.9 1348.8 374.26C1348.8 363.713 1342.26 358.44 1329.2 358.44H1307.36V390.22Z" fill="#FF0099"/>
<path d="M589.991 444.4C582.245 444.4 575.058 443.42 568.431 441.46C561.805 439.407 556.205 436.653 551.631 433.2L557.091 419.06C561.665 422.327 566.658 424.847 572.071 426.62C577.578 428.393 583.551 429.28 589.991 429.28C597.365 429.28 602.731 428.067 606.091 425.64C609.451 423.12 611.131 419.9 611.131 415.98C611.131 412.713 609.918 410.147 607.491 408.28C605.158 406.413 601.098 404.873 595.311 403.66L579.911 400.44C562.365 396.707 553.591 387.7 553.591 373.42C553.591 367.26 555.225 361.893 558.491 357.32C561.758 352.747 566.285 349.2 572.071 346.68C577.858 344.16 584.531 342.9 592.091 342.9C598.811 342.9 605.111 343.927 610.991 345.98C616.871 347.94 621.771 350.74 625.691 354.38L620.231 367.82C612.485 361.287 603.058 358.02 591.951 358.02C585.511 358.02 580.471 359.373 576.831 362.08C573.191 364.787 571.371 368.333 571.371 372.72C571.371 376.08 572.491 378.787 574.731 380.84C576.971 382.8 580.798 384.34 586.211 385.46L601.471 388.68C610.711 390.64 617.571 393.72 622.051 397.92C626.625 402.12 628.911 407.72 628.911 414.72C628.911 420.6 627.325 425.78 624.151 430.26C620.978 434.74 616.451 438.24 610.571 440.76C604.785 443.187 597.925 444.4 589.991 444.4ZM678.312 444.4C670.565 444.4 663.378 443.42 656.752 441.46C650.125 439.407 644.525 436.653 639.952 433.2L645.412 419.06C649.985 422.327 654.978 424.847 660.392 426.62C665.898 428.393 671.872 429.28 678.312 429.28C685.685 429.28 691.052 428.067 694.412 425.64C697.772 423.12 699.452 419.9 699.452 415.98C699.452 412.713 698.238 410.147 695.812 408.28C693.478 406.413 689.418 404.873 683.632 403.66L668.232 400.44C650.685 396.707 641.912 387.7 641.912 373.42C641.912 367.26 643.545 361.893 646.812 357.32C650.078 352.747 654.605 349.2 660.392 346.68C666.178 344.16 672.852 342.9 680.412 342.9C687.132 342.9 693.432 343.927 699.312 345.98C705.192 347.94 710.092 350.74 714.012 354.38L708.552 367.82C700.805 361.287 691.378 358.02 680.272 358.02C673.832 358.02 668.792 359.373 665.152 362.08C661.512 364.787 659.692 368.333 659.692 372.72C659.692 376.08 660.812 378.787 663.052 380.84C665.292 382.8 669.118 384.34 674.532 385.46L689.792 388.68C699.032 390.64 705.892 393.72 710.372 397.92C714.945 402.12 717.232 407.72 717.232 414.72C717.232 420.6 715.645 425.78 712.472 430.26C709.298 434.74 704.772 438.24 698.892 440.76C693.105 443.187 686.245 444.4 678.312 444.4ZM732.612 443V344.3H775.452C786.279 344.3 794.632 346.913 800.512 352.14C806.392 357.273 809.332 364.507 809.332 373.84C809.332 381.213 807.419 387.327 803.592 392.18C799.765 396.94 794.259 400.16 787.072 401.84C791.832 403.333 795.752 406.927 798.832 412.62L815.352 443H795.612L778.532 411.5C776.852 408.42 774.845 406.32 772.512 405.2C770.272 404.08 767.379 403.52 763.832 403.52H750.532V443H732.612ZM750.532 390.22H772.372C785.439 390.22 791.972 384.9 791.972 374.26C791.972 363.713 785.439 358.44 772.372 358.44H750.532V390.22Z" fill="#73ECFD"/>
</g>
<defs>
<linearGradient id="paint0_linear_1_3" x1="1685.5" y1="189.5" x2="187" y2="940" gradientUnits="userSpaceOnUse">
<stop/>
<stop offset="1" stop-color="#150031"/>
</linearGradient>
<linearGradient id="paint1_linear_1_3" x1="228" y1="720" x2="228" y2="1030" gradientUnits="userSpaceOnUse">
<stop stop-color="#3300FF"/>
<stop offset="1" stop-color="white"/>
</linearGradient>
<linearGradient id="paint2_linear_1_3" x1="73" y1="875" x2="73" y2="1185" gradientUnits="userSpaceOnUse">
<stop stop-color="#3300FF"/>
<stop offset="1" stop-color="white"/>
</linearGradient>
<linearGradient id="paint3_linear_1_3" x1="1849" y1="-29" x2="1849" y2="181" gradientUnits="userSpaceOnUse">
<stop stop-color="#3300FF"/>
<stop offset="1" stop-color="white"/>
</linearGradient>
<linearGradient id="paint4_linear_1_3" x1="488" y1="91" x2="488" y2="301" gradientUnits="userSpaceOnUse">
<stop stop-color="#3300FF"/>
<stop offset="1" stop-color="white"/>
</linearGradient>
<linearGradient id="paint5_linear_1_3" x1="1321" y1="301" x2="1321" y2="471" gradientUnits="userSpaceOnUse">
<stop stop-color="#3300FF"/>
<stop offset="1" stop-color="white"/>
</linearGradient>
<linearGradient id="paint6_linear_1_3" x1="1687" y1="720" x2="1687" y2="930" gradientUnits="userSpaceOnUse">
<stop stop-color="#3300FF"/>
<stop offset="1" stop-color="white"/>
</linearGradient>
<clipPath id="clip0_1_3">
<rect width="1920" height="1080" fill="white"/>
</clipPath>
</defs>
</svg>
